<?xml version="1.0" encoding="utf-8"?>
<!-- Generator: Adobe Illustrator 25.0.1, SVG Export Plug-In . SVG Version: 6.00 Build 0)  -->
<svg version="1.1" id="Layer_1" xmlns="http://www.w3.org/2000/svg" xmlns:xlink="http://www.w3.org/1999/xlink" x="0px" y="0px"
	 viewBox="0 0 1920 1080" style="enable-background:new 0 0 1920 1080;" xml:space="preserve">
<style type="text/css">
	.st0{fill-rule:evenodd;clip-rule:evenodd;fill:#00B7F1;}
	.st1{fill:#00B7F1;}
</style>
<path class="st0" d="M957.11,611.38c-4.77-2.85-10.97-6.04-16.59-3.74c-4.31,1.76-7.06,8.51-9.85,11.95
	c-1.43,1.77-3.14,2.04-5.34,1.16c-16.17-6.44-28.57-17.24-37.49-32.12c-1.51-2.31-1.24-4.13,0.58-6.28
	c2.7-3.17,6.08-6.78,6.81-11.06c0.73-4.28-1.28-9.28-3.05-13.09c-2.26-4.87-4.79-11.81-9.66-14.56c-4.49-2.53-10.39-1.11-14.38,2.14
	c-6.89,5.61-10.22,14.41-10.12,23.13c0.03,2.48,0.33,4.95,0.91,7.34c1.39,5.75,4.05,11.12,7.04,16.22
	c2.25,3.85,4.71,7.58,7.35,11.18c8.65,11.75,19.41,21.96,31.88,29.6c6.23,3.81,12.93,7.16,19.88,9.45
	c7.79,2.57,14.73,5.25,23.14,3.65c8.81-1.67,17.49-7.12,20.98-15.61c1.03-2.51,1.55-5.31,0.97-7.96
	C968.98,617.29,961.55,614.03,957.11,611.38z"/>
<path class="st1" d="M914.22,127.56c-30.2,0-54.69,24.48-54.69,54.69c0,30.2,54.69,113.21,54.69,113.21s54.69-83.01,54.69-113.21
	C968.91,152.04,944.42,127.56,914.22,127.56z M914.22,206.53c-13.42,0-24.29-10.88-24.29-24.29c0-13.42,10.87-24.29,24.29-24.29
	c13.42,0,24.29,10.88,24.29,24.29C938.51,195.66,927.63,206.53,914.22,206.53z"/>
<g>
	<path class="st1" d="M982.83,861.36v-1.18c0-3.44-2.79-6.24-6.24-6.24H851.84c-3.44,0-6.24,2.79-6.24,6.24v1.18l68.61,60.84
		L982.83,861.36z"/>
	<path class="st1" d="M914.22,929.77c-0.77,0-1.54-0.27-2.15-0.82l-66.46-58.94v71.25c0,3.45,2.79,6.24,6.24,6.24H976.6
		c3.44,0,6.24-2.79,6.24-6.24v-71.25l-66.46,58.93C915.75,929.5,914.99,929.77,914.22,929.77z"/>
</g>
</svg>
