<svg id="Navi" xmlns="http://www.w3.org/2000/svg" viewBox="0 0 57.18 38.99"><defs><style>.cls-1{fill:#fff;}</style></defs><polygon class="cls-1" points="46.13 28.04 48.84 28.04 47.51 20.79 46.13 28.04"/><path class="cls-1" d="M18.86,9V30.65c2.48,0,3.69-3.82,3.69-10.85C22.55,12.25,21.34,9,18.86,9Z"/><path class="cls-1" d="M54.59,0H2.6A2.59,2.59,0,0,0,0,2.6V36.39A2.59,2.59,0,0,0,2.6,39h52a2.59,2.59,0,0,0,2.59-2.6V2.6A2.59,2.59,0,0,0,54.59,0ZM12.72,18.86v3.81H8.39v8h4.33v3.81H4.06V22.67H2.6V18.86H4.06V5.17h7.42L12.72,9H8.39v9.87Zm6.14,15.6H14.57V5.17h4.29c5,0,8,3.82,8,14.63S23.87,34.46,18.86,34.46Zm19.26-15.6v3.81H33.78v8h4.34v3.81H29.45V22.67H28V18.86h1.46V5.17h7.42L38.12,9H33.78v9.87Zm12,15.6-.51-2.61H45.45L45,34.46H40.43l.6-2.61H39.32L40.17,28H41.8l5.06-23.5h1.29l6.44,29.93Z"/></svg>