<svg id="Navi" xmlns="http://www.w3.org/2000/svg" viewBox="0 0 60.58 60.58"><defs><style>.cls-1{fill:#fff;fill-rule:evenodd;}</style></defs><path class="cls-1" d="M42.82,35.19c-1.39-.83-3.2-1.76-4.85-1.09-1.25.52-2.06,2.49-2.87,3.49a1.2,1.2,0,0,1-1.56.34,21.92,21.92,0,0,1-11-9.38,1.35,1.35,0,0,1,.17-1.84,7.32,7.32,0,0,0,2-3.23,7,7,0,0,0-.89-3.82c-.66-1.42-1.4-3.45-2.82-4.25a3.86,3.86,0,0,0-4.2.62,8.51,8.51,0,0,0-3,6.76,9.65,9.65,0,0,0,.27,2.14,17.35,17.35,0,0,0,2.06,4.74,36.72,36.72,0,0,0,2.14,3.27,33.2,33.2,0,0,0,9.31,8.64,27.87,27.87,0,0,0,5.81,2.76c2.28.76,4.31,1.54,6.76,1.07a8.19,8.19,0,0,0,6.13-4.56,4,4,0,0,0,.29-2.32C46.29,36.92,44.12,36,42.82,35.19Z"/></svg>